<?xml version="1.0" encoding="UTF-8"?><svg id="a" xmlns="http://www.w3.org/2000/svg" viewBox="0 0 2160 2160"><defs><style>.g{fill:#fcfcfc;}.h{fill:#ffee58;}.i{fill:#ef5350;}.j{fill:#333;}.k{fill:#cc4a4a;}.l{fill:#42a5f5;}</style></defs><g id="b"><path class="l" d="M1079.46,2101.21c-137.82,0-271.49-26.98-397.31-80.2-121.55-51.41-230.71-125.01-324.47-218.77-93.76-93.75-167.36-202.92-218.77-324.47-53.22-125.82-80.2-259.49-80.2-397.31s26.98-271.49,80.2-397.31c51.41-121.55,125.01-230.71,218.77-324.47s202.92-167.36,324.47-218.77c125.82-53.22,259.49-80.2,397.31-80.2s271.49,26.98,397.31,80.2c121.54,51.41,230.71,125.01,324.47,218.77,93.76,93.76,167.36,202.92,218.77,324.47,53.22,125.82,80.2,259.49,80.2,397.31s-26.98,271.49-80.2,397.31c-51.41,121.54-125.01,230.71-218.77,324.47-93.75,93.76-202.92,167.36-324.47,218.77-125.82,53.22-259.49,80.2-397.31,80.2Z"/><path class="j" d="M1079.46,96.51c66.81,0,133.55,6.73,198.38,19.99,63.14,12.92,125.25,32.2,184.6,57.3,58.29,24.65,114.51,55.17,167.11,90.71,52.12,35.21,101.13,75.65,145.67,120.19s84.98,93.56,120.19,145.67c35.54,52.6,66.05,108.82,90.71,167.11,25.1,59.35,44.38,121.46,57.3,184.6,13.27,64.83,19.99,131.57,19.99,198.38s-6.73,133.55-19.99,198.38c-12.92,63.14-32.2,125.25-57.3,184.6-24.65,58.29-55.17,114.51-90.71,167.11-35.21,52.12-75.65,101.13-120.19,145.67s-93.56,84.98-145.67,120.19c-52.6,35.54-108.82,66.05-167.11,90.71-59.35,25.1-121.46,44.38-184.6,57.3-64.83,13.27-131.57,19.99-198.38,19.99s-133.55-6.73-198.38-19.99c-63.14-12.92-125.25-32.2-184.6-57.3-58.29-24.65-114.51-55.17-167.11-90.71-52.12-35.21-101.13-75.65-145.67-120.19-44.54-44.54-84.98-93.56-120.19-145.67-35.54-52.6-66.05-108.82-90.71-167.11-25.1-59.35-44.38-121.46-57.3-184.6-13.27-64.83-19.99-131.57-19.99-198.38s6.73-133.55,19.99-198.38c12.92-63.14,32.2-125.25,57.3-184.6,24.65-58.29,55.17-114.51,90.71-167.11,35.21-52.12,75.65-101.13,120.19-145.67,44.54-44.54,93.56-84.98,145.67-120.19,52.6-35.54,108.82-66.05,167.11-90.71,59.35-25.1,121.46-44.38,184.6-57.3,64.83-13.27,131.57-19.99,198.38-19.99m0-73.59C495.4,22.92,21.92,496.4,21.92,1080.46s473.48,1057.54,1057.54,1057.54,1057.54-473.48,1057.54-1057.54S1663.52,22.92,1079.46,22.92h0Z"/></g><g id="c"><rect class="k" x="389.27" y="390.2" width="1380.53" height="1380.53"/><path class="j" d="M1733.01,426.99V1733.93H426.07V426.99H1733.01m73.59-73.59H352.48V1807.52H1806.6V353.4h0Z"/></g><g><rect class="i" x="454.55" y="387.03" width="88.09" height="75.37" rx="21.87" ry="21.87"/><rect class="i" x="454.55" y="530.91" width="88.09" height="75.37" rx="21.87" ry="21.87"/><rect class="i" x="454.55" y="674.79" width="88.09" height="75.37" rx="21.87" ry="21.87"/><rect class="i" x="454.55" y="818.67" width="88.09" height="75.37" rx="21.87" ry="21.87"/><rect class="i" x="454.55" y="962.56" width="88.09" height="75.37" rx="21.87" ry="21.87"/><rect class="i" x="454.55" y="1106.44" width="88.09" height="75.37" rx="21.87" ry="21.87"/><rect class="i" x="454.55" y="1250.32" width="88.09" height="75.37" rx="21.87" ry="21.87"/><rect class="i" x="454.55" y="1394.2" width="88.09" height="75.37" rx="21.87" ry="21.87"/><rect class="i" x="454.55" y="1538.08" width="88.09" height="75.37" rx="21.87" ry="21.87"/><rect class="i" x="454.55" y="1681.96" width="88.09" height="75.37" rx="21.87" ry="21.87"/></g><g><rect class="i" x="1619.3" y="387.03" width="88.09" height="75.37" rx="21.87" ry="21.87"/><rect class="i" x="1619.3" y="530.91" width="88.09" height="75.37" rx="21.87" ry="21.87"/><rect class="i" x="1619.3" y="674.79" width="88.09" height="75.37" rx="21.87" ry="21.87"/><rect class="i" x="1619.3" y="818.67" width="88.09" height="75.37" rx="21.87" ry="21.87"/><rect class="i" x="1619.3" y="962.56" width="88.09" height="75.37" rx="21.87" ry="21.87"/><rect class="i" x="1619.3" y="1106.44" width="88.09" height="75.37" rx="21.87" ry="21.87"/><rect class="i" x="1619.3" y="1250.32" width="88.09" height="75.37" rx="21.87" ry="21.87"/><rect class="i" x="1619.3" y="1394.2" width="88.09" height="75.37" rx="21.87" ry="21.87"/><rect class="i" x="1619.3" y="1538.08" width="88.09" height="75.37" rx="21.87" ry="21.87"/><rect class="i" x="1619.3" y="1681.96" width="88.09" height="75.37" rx="21.87" ry="21.87"/></g><rect class="i" x="572" y="397.8" width="1016.96" height="653.83"/><rect class="i" x="572" y="1126.01" width="1016.96" height="653.83"/><g id="d"><path class="j" d="M1733.01,426.99V1733.93H426.07V426.99H1733.01m73.59-73.59H352.48V1807.52H1806.6V353.4h0Z"/></g><g id="e"><g><polygon class="h" points="412.01 1770.73 1079.54 435.68 1747.06 1770.73 412.01 1770.73"/><path class="j" d="M1079.54,517.95l607.99,1215.99H471.54L1079.54,517.95m0-164.54L352.48,1807.52H1806.6L1079.54,353.4h0Z"/></g></g><g id="f"><path class="g" d="M77.3,1274.94c-12.29-63.76-18.51-129.05-18.51-194.48s6.22-130.72,18.51-194.48h2004.47c12.29,63.76,18.51,129.05,18.51,194.48s-6.22,130.72-18.51,194.48H77.3Z"/><path class="j" d="M2050.92,922.78c8.35,51.93,12.57,104.75,12.57,157.68s-4.22,105.75-12.57,157.68H108.16c-8.35-51.93-12.57-104.76-12.57-157.68s4.22-105.75,12.57-157.68h1942.76m60.78-73.59H47.38c-16.61,74.43-25.38,151.84-25.38,231.27s8.77,156.84,25.38,231.27H2111.7c16.61-74.43,25.38-151.84,25.38-231.27s-8.77-156.84-25.38-231.27h0Z"/></g><g><path class="j" d="M570.73,1045.97c-12.47-15.21-27.87-22.82-46.2-22.82-8.07,0-15.54,1.47-22.41,4.4-6.87,2.93-12.79,6.92-17.74,11.96-4.95,5.05-8.85,11.05-11.69,18.01-2.85,6.97-4.26,14.48-4.26,22.55s1.42,15.86,4.26,22.83c2.84,6.97,6.78,13.02,11.82,18.15,5.04,5.14,10.95,9.17,17.74,12.1,6.78,2.93,14.12,4.4,22,4.4,17.23,0,32.72-7.33,46.47-22v63.8l-5.5,1.93c-8.25,2.93-15.95,5.09-23.1,6.46-7.15,1.38-14.21,2.06-21.17,2.06-14.3,0-28.01-2.71-41.11-8.11-13.11-5.41-24.66-13.01-34.65-22.83-10-9.81-18.01-21.45-24.06-34.92-6.05-13.47-9.08-28.18-9.08-44.14s2.98-30.57,8.94-43.86c5.96-13.29,13.93-24.75,23.92-34.37,9.99-9.62,21.59-17.14,34.79-22.55,13.2-5.41,27.04-8.11,41.52-8.11,8.25,0,16.36,.87,24.34,2.61,7.97,1.75,16.36,4.45,25.16,8.11v64.35Z"/><path class="j" d="M686.22,976.67v161.7h64.62v45.65h-118.52v-207.34h53.9Z"/><path class="j" d="M941.69,1147.99h-77l-12.37,36.03h-57.48l78.92-207.34h58.85l78.92,207.34h-57.47l-12.37-36.03Zm-14.3-40.97l-24.2-69.02-24.2,69.02h48.4Z"/><path class="j" d="M1176.53,1029.75c-5.87-4.77-11.74-8.29-17.6-10.59-5.87-2.29-11.55-3.44-17.05-3.44-6.97,0-12.65,1.65-17.05,4.95-4.4,3.3-6.6,7.61-6.6,12.92,0,3.67,1.1,6.69,3.3,9.07,2.2,2.39,5.09,4.45,8.66,6.19,3.58,1.75,7.61,3.26,12.1,4.54,4.49,1.29,8.94,2.66,13.34,4.13,17.6,5.87,30.48,13.71,38.63,23.51,8.16,9.81,12.24,22.59,12.24,38.36,0,10.63-1.79,20.26-5.36,28.87-3.58,8.62-8.8,16-15.67,22.14-6.87,6.14-15.31,10.91-25.3,14.3-9.99,3.39-21.31,5.09-33.96,5.09-26.22,0-50.51-7.79-72.87-23.37l23.1-43.45c8.06,7.15,16.04,12.47,23.92,15.95,7.88,3.48,15.67,5.23,23.37,5.23,8.8,0,15.35-2.02,19.66-6.05,4.31-4.03,6.46-8.61,6.46-13.75,0-3.12-.55-5.82-1.65-8.11-1.1-2.29-2.93-4.4-5.5-6.32-2.57-1.93-5.91-3.71-10.04-5.36-4.12-1.65-9.12-3.48-14.98-5.5-6.97-2.2-13.8-4.63-20.49-7.29-6.7-2.66-12.65-6.19-17.88-10.59-5.23-4.4-9.45-9.94-12.65-16.64-3.21-6.69-4.81-15.17-4.81-25.44s1.69-19.57,5.09-27.91c3.39-8.34,8.16-15.49,14.3-21.45,6.14-5.96,13.66-10.59,22.55-13.89,8.89-3.3,18.84-4.95,29.84-4.95,10.27,0,20.99,1.42,32.18,4.26,11.18,2.84,21.9,7.01,32.17,12.51l-21.45,42.07Z"/><path class="j" d="M1381.67,1029.75c-5.87-4.77-11.74-8.29-17.6-10.59-5.87-2.29-11.55-3.44-17.05-3.44-6.97,0-12.65,1.65-17.05,4.95-4.4,3.3-6.6,7.61-6.6,12.92,0,3.67,1.1,6.69,3.3,9.07,2.2,2.39,5.09,4.45,8.66,6.19,3.58,1.75,7.61,3.26,12.1,4.54,4.49,1.29,8.94,2.66,13.34,4.13,17.6,5.87,30.48,13.71,38.63,23.51,8.16,9.81,12.24,22.59,12.24,38.36,0,10.63-1.79,20.26-5.36,28.87-3.58,8.62-8.8,16-15.67,22.14-6.87,6.14-15.31,10.91-25.3,14.3-9.99,3.39-21.31,5.09-33.96,5.09-26.22,0-50.51-7.79-72.87-23.37l23.1-43.45c8.06,7.15,16.04,12.47,23.92,15.95,7.88,3.48,15.67,5.23,23.37,5.23,8.8,0,15.35-2.02,19.66-6.05,4.31-4.03,6.46-8.61,6.46-13.75,0-3.12-.55-5.82-1.65-8.11-1.1-2.29-2.93-4.4-5.5-6.32-2.57-1.93-5.91-3.71-10.04-5.36-4.12-1.65-9.12-3.48-14.98-5.5-6.97-2.2-13.8-4.63-20.49-7.29-6.7-2.66-12.65-6.19-17.88-10.59-5.23-4.4-9.45-9.94-12.65-16.64-3.21-6.69-4.81-15.17-4.81-25.44s1.69-19.57,5.09-27.91c3.39-8.34,8.16-15.49,14.3-21.45,6.14-5.96,13.66-10.59,22.55-13.89,8.89-3.3,18.84-4.95,29.84-4.95,10.27,0,20.99,1.42,32.18,4.26,11.18,2.84,21.9,7.01,32.17,12.51l-21.45,42.07Z"/><path class="j" d="M1526.86,976.67v207.34h-53.9v-207.34h53.9Z"/><path class="j" d="M1747.13,1045.97c-12.47-15.21-27.87-22.82-46.2-22.82-8.07,0-15.54,1.47-22.41,4.4-6.87,2.93-12.79,6.92-17.74,11.96-4.95,5.05-8.85,11.05-11.69,18.01-2.85,6.97-4.26,14.48-4.26,22.55s1.42,15.86,4.26,22.83c2.84,6.97,6.78,13.02,11.82,18.15,5.04,5.14,10.95,9.17,17.74,12.1,6.78,2.93,14.12,4.4,22,4.4,17.23,0,32.72-7.33,46.47-22v63.8l-5.5,1.93c-8.25,2.93-15.95,5.09-23.1,6.46-7.15,1.38-14.21,2.06-21.17,2.06-14.3,0-28.01-2.71-41.11-8.11-13.11-5.41-24.66-13.01-34.65-22.83-10-9.81-18.01-21.45-24.06-34.92-6.05-13.47-9.08-28.18-9.08-44.14s2.98-30.57,8.94-43.86c5.96-13.29,13.93-24.75,23.92-34.37,9.99-9.62,21.59-17.14,34.79-22.55,13.2-5.41,27.04-8.11,41.52-8.11,8.25,0,16.36,.87,24.34,2.61,7.97,1.75,16.36,4.45,25.16,8.11v64.35Z"/></g></svg>